<svg xmlns="http://www.w3.org/2000/svg" width="1280" height="720" viewBox="0 0 1280 720" role="img" aria-labelledby="title desc">
  <title id="title">Session management screenshot placeholder</title>
  <desc id="desc">Replace this file with the WorkBuddy Tools session management screenshot.</desc>
  <rect width="1280" height="720" fill="#f5f7fa"/>
  <rect x="32" y="32" width="1216" height="656" rx="8" fill="#ffffff" stroke="#cbd5e1" stroke-width="2"/>
  <rect x="32" y="32" width="1216" height="72" rx="8" fill="#172033"/>
  <circle cx="72" cy="68" r="14" fill="#34d399"/>
  <rect x="104" y="57" width="210" height="22" rx="4" fill="#ffffff" opacity="0.92"/>
  <rect x="72" y="144" width="1136" height="58" rx="6" fill="#eef2f7"/>
  <g fill="#ffffff" stroke="#d8e0ea" stroke-width="2">
    <rect x="72" y="226" width="1136" height="104" rx="6"/>
    <rect x="72" y="346" width="1136" height="104" rx="6"/>
    <rect x="72" y="466" width="1136" height="104" rx="6"/>
  </g>
  <g fill="#e2e8f0">
    <rect x="104" y="252" width="350" height="18" rx="4"/>
    <rect x="104" y="286" width="610" height="14" rx="4"/>
    <rect x="104" y="372" width="300" height="18" rx="4"/>
    <rect x="104" y="406" width="690" height="14" rx="4"/>
  </g>
  <text x="640" y="624" text-anchor="middle" fill="#475569" font-family="Segoe UI, Arial, sans-serif" font-size="28">Session Management</text>
  <text x="640" y="655" text-anchor="middle" fill="#64748b" font-family="Segoe UI, Arial, sans-serif" font-size="18">Replace docs/screenshots/session-management.svg</text>
</svg>
