<svg xmlns="http://www.w3.org/2000/svg" width="1280" height="720" viewBox="0 0 1280 720" role="img" aria-labelledby="title desc">
  <title id="title">WebDAV sync screenshot placeholder</title>
  <desc id="desc">Replace this file with the WorkBuddy Tools WebDAV sync screenshot.</desc>
  <rect width="1280" height="720" fill="#f5f7fa"/>
  <rect x="32" y="32" width="1216" height="656" rx="8" fill="#ffffff" stroke="#cbd5e1" stroke-width="2"/>
  <rect x="32" y="32" width="1216" height="72" rx="8" fill="#172033"/>
  <circle cx="72" cy="68" r="14" fill="#f59e0b"/>
  <rect x="104" y="57" width="210" height="22" rx="4" fill="#ffffff" opacity="0.92"/>
  <rect x="72" y="144" width="545" height="424" rx="6" fill="#f8fafc" stroke="#d8e0ea" stroke-width="2"/>
  <rect x="649" y="144" width="559" height="424" rx="6" fill="#f8fafc" stroke="#d8e0ea" stroke-width="2"/>
  <g fill="#e2e8f0">
    <rect x="104" y="180" width="210" height="18" rx="4"/>
    <rect x="104" y="224" width="481" height="44" rx="5"/>
    <rect x="104" y="292" width="481" height="44" rx="5"/>
    <rect x="104" y="360" width="481" height="44" rx="5"/>
    <rect x="681" y="180" width="190" height="18" rx="4"/>
    <rect x="681" y="224" width="495" height="120" rx="5"/>
    <rect x="681" y="368" width="495" height="82" rx="5"/>
  </g>
  <rect x="104" y="476" width="180" height="52" rx="6" fill="#0f766e"/>
  <text x="640" y="624" text-anchor="middle" fill="#475569" font-family="Segoe UI, Arial, sans-serif" font-size="28">WebDAV Sync</text>
  <text x="640" y="655" text-anchor="middle" fill="#64748b" font-family="Segoe UI, Arial, sans-serif" font-size="18">Replace docs/screenshots/webdav-sync.svg</text>
</svg>
